<?xml version="1.0" encoding="UTF-8" standalone="no"?>
<svg
   xmlns:dc="http://purl.org/dc/elements/1.1/"
   xmlns:cc="http://creativecommons.org/ns#"
   xmlns:rdf="http://www.w3.org/1999/02/22-rdf-syntax-ns#"
   xmlns:svg="http://www.w3.org/2000/svg"
   xmlns="http://www.w3.org/2000/svg"
   version="1.1"
   id="svg2"
   viewBox="0 0 100 100"
   height="100"
   width="100">
  <defs
     id="defs4" />
  <metadata
     id="metadata7">
    <rdf:RDF>
      <cc:Work
         rdf:about="">
        <dc:format>image/svg+xml</dc:format>
        <dc:type
           rdf:resource="http://purl.org/dc/dcmitype/StillImage" />
        <dc:title></dc:title>
      </cc:Work>
    </rdf:RDF>
  </metadata>
  <g
     transform="translate(0,-952.36216)"
     id="layer1">
    <g
       id="text3338"
       style="font-style:normal;font-weight:normal;font-size:113.60338593px;line-height:125%;font-family:sans-serif;letter-spacing:0px;word-spacing:0px;fill:#000000;fill-opacity:1;stroke:none;stroke-width:1px;stroke-linecap:butt;stroke-linejoin:miter;stroke-opacity:1">
      <circle
         r="44.7481"
         cy="1002.3622"
         cx="50"
         id="path3426"
         style="fill:#000000" />
      <circle
         r="44.293148"
         cy="1002.1622"
         cx="50"
         id="path3436"
         style="fill:#ffffff" />
      <path
         id="path3343"
         d="m 74.805662,1016.738 c 0,-0.2466 0,-0.4932 -0.1057,-0.7398 -0.24665,-0.74 -1.97318,-1.515 -2.67789,-1.8676 -2.00841,-1.1274 -4.05206,-2.2198 -6.02524,-3.3825 -0.91612,-0.5638 -2.04365,-1.6208 -3.13594,-1.6208 -2.14936,0 -5.2853,6.3775 -7.18801,6.3775 -0.95135,0 -2.18459,-0.8808 -3.03023,-1.3742 -6.41283,-3.5588 -10.85248,-7.9983 -14.41125,-14.41115 -0.49329,-0.84569 -1.37417,-2.07889 -1.37417,-3.03029 0,-1.90267 6.37759,-5.03857 6.37759,-7.18792 0,-1.0923 -1.05706,-2.21983 -1.62083,-3.13594 -1.16276,-1.97318 -2.25506,-4.01683 -3.38259,-6.02524 -0.35235,-0.70471 -1.12753,-2.43123 -1.86747,-2.67789 -0.24665,-0.1057 -0.49329,-0.1057 -0.73994,-0.1057 -1.26847,0 -3.73494,0.56376 -4.89771,1.09229 -1.72653,0.73994 -2.85406,2.71312 -3.73494,4.29871 -1.127535,2.07888 -1.797005,4.193 -1.797005,6.55377 0,3.27685 1.338945,6.23662 2.431235,9.23152 0.77518,2.14954 1.72653,4.22844 2.92453,6.16634 3.69971,5.99 10.922951,13.2132 16.91296,16.9129 1.93794,1.198 4.016821,2.1494 6.16618,2.9246 2.995,1.0923 5.95476,2.4313 9.23165,2.4313 2.360771,0 4.47488,-0.6694 6.55377,-1.797 1.58559,-0.8809 3.55876,-2.0086 4.29871,-3.7351 0.528531,-1.1627 1.092291,-3.6292 1.092291,-4.8977 z" />
    </g>
  </g>
</svg>
