<svg
   xmlns="http://www.w3.org/2000/svg"
   version="1.1"
   viewBox="0 0 100 100">
  <g
      transform="translate(0,-952.36216)">
      <path
         d="m 38.571429,979.50497 0,-5.71429 22.857142,0 0,5.71429 -22.857142,0 z M 90,1008.0764 l -30,0 0,7.1429 c 0,1.5625 -1.294643,2.8571 -2.857143,2.8571 l -14.285714,0 c -1.5625,0 -2.857143,-1.2946 -2.857143,-2.8571 l 0,-7.1429 -30,0 0,21.4286 c 0,3.9285 3.214286,7.1428 7.142857,7.1428 l 65.714286,0 c 3.928571,0 7.142857,-3.2143 7.142857,-7.1428 l 0,-21.4286 z m -34.285714,0 -11.428572,0 0,5.7143 11.428572,0 0,-5.7143 z M 90,986.64783 c 0,-3.92857 -3.214286,-7.14286 -7.142857,-7.14286 l -15.714286,0 0,-7.14286 c 0,-2.36607 -1.919643,-4.28571 -4.285714,-4.28571 l -25.714286,0 c -2.366071,0 -4.285714,1.91964 -4.285714,4.28571 l 0,7.14286 -15.714286,0 C 13.214286,979.50497 10,982.71926 10,986.64783 l 0,17.14287 80,0 0,-17.14287 z" />
    </g>
</svg>
