<svg
   xmlns="http://www.w3.org/2000/svg"
   version="1.1"
   viewBox="0 0 100 100">
  <g
     transform="translate(0,-952.36216)">
      <path
         d="m 61.428572,1002.3622 c 0,6.2946 -5.133929,11.4285 -11.428572,11.4285 -6.294643,0 -11.428571,-5.1339 -11.428571,-11.4285 0,-6.29468 5.133928,-11.42861 11.428571,-11.42861 6.294643,0 11.428572,5.13393 11.428572,11.42861 z m 22.857142,-4.86611 c 0,-0.75892 -0.535714,-1.47321 -1.294642,-1.60714 l -8.169643,-1.25 c -0.446429,-1.47321 -1.071429,-2.94643 -1.830357,-4.375 1.517857,-2.09821 3.169642,-4.0625 4.6875,-6.11607 0.223214,-0.3125 0.357142,-0.625 0.357142,-1.02679 0,-0.35714 -0.08929,-0.71428 -0.3125,-0.98214 -1.875,-2.63393 -5,-5.40178 -7.366071,-7.58928 -0.3125,-0.26786 -0.714286,-0.44643 -1.116071,-0.44643 -0.401786,0 -0.803572,0.13393 -1.071429,0.40178 l -6.339286,4.77679 c -1.294643,-0.66964 -2.633928,-1.20536 -4.017857,-1.65179 l -1.25,-8.21428 c -0.08929,-0.75893 -0.803571,-1.33929 -1.607143,-1.33929 l -9.910714,0 c -0.803571,0 -1.428571,0.53572 -1.607143,1.25 -0.714286,2.67857 -0.982143,5.58036 -1.294643,8.30357 -1.383928,0.44643 -2.767857,1.02679 -4.0625,1.69643 l -6.160714,-4.77678 c -0.357143,-0.26786 -0.758929,-0.44643 -1.160714,-0.44643 -1.517857,0 -7.544643,6.51785 -8.616072,7.99107 -0.223214,0.3125 -0.401785,0.625 -0.401785,1.02678 0,0.40179 0.178571,0.75893 0.446428,1.07143 1.651786,2.00893 3.258929,4.01786 4.776786,6.16072 -0.714286,1.33928 -1.294643,2.67857 -1.741072,4.10714 l -8.303571,1.25 c -0.669643,0.13393 -1.205357,0.9375 -1.205357,1.60714 l 0,9.91068 c 0,0.759 0.535714,1.4733 1.294643,1.6072 l 8.169643,1.2053 c 0.446428,1.5179 1.071428,2.9911 1.830357,4.4197 -1.517857,2.0982 -3.169643,4.0625 -4.6875,6.1161 -0.223215,0.3125 -0.357143,0.625 -0.357143,1.0267 0,0.3572 0.08929,0.7143 0.3125,1.0268 1.875,2.5893 5,5.3572 7.366071,7.5 0.3125,0.3125 0.714286,0.4911 1.116072,0.4911 0.401785,0 0.803571,-0.1339 1.116071,-0.4018 l 6.294643,-4.7768 c 1.294643,0.6697 2.633929,1.2054 4.017857,1.6518 l 1.25,8.2143 c 0.08929,0.7589 0.803572,1.3393 1.607143,1.3393 l 9.910714,0 c 0.803572,0 1.428572,-0.5357 1.607143,-1.25 0.714286,-2.6786 0.982143,-5.5804 1.294643,-8.3036 1.383929,-0.4464 2.767857,-1.0268 4.0625,-1.6964 l 6.160714,4.8214 c 0.357143,0.2232 0.758929,0.4018 1.160715,0.4018 1.517857,0 7.544642,-6.5625 8.616071,-7.9911 0.267857,-0.3125 0.401786,-0.625 0.401786,-1.0268 0,-0.4017 -0.178572,-0.8035 -0.446429,-1.116 -1.651786,-2.009 -3.258928,-3.9732 -4.776786,-6.1607 0.714286,-1.2947 1.25,-2.634 1.741072,-4.0625 l 8.258928,-1.25 c 0.714286,-0.134 1.25,-0.9375 1.25,-1.6072 l 0,-9.91071 z" />
    </g>
</svg>
