<svg
   xmlns="http://www.w3.org/2000/svg"
   version="1.1"
   viewBox="0 0 100 100">
  <g
     transform="translate(0,-952.36216)">
      <path
         d="m 75.714285,1006.7204 c 0,-0.089 0,-0.1786 -0.04464,-0.2679 L 50,985.29182 24.330357,1006.4525 c 0,0.089 -0.04464,0.1786 -0.04464,0.2679 l 0,21.4286 c 0,1.5625 1.294643,2.8571 2.857143,2.8571 l 17.142857,0 0,-17.1429 11.428571,0 0,17.1429 17.142857,0 c 1.5625,0 2.857143,-1.2946 2.857143,-2.8571 l 0,-21.4286 z m 9.955357,-3.0804 c 0.491072,-0.5803 0.401786,-1.5178 -0.178571,-2.0089 l -9.776786,-8.125 0,-18.21428 c 0,-0.80357 -0.625,-1.42857 -1.428571,-1.42857 l -8.571429,0 c -0.803571,0 -1.428571,0.625 -1.428571,1.42857 l 0,8.70535 -10.892857,-9.10714 c -1.875,-1.5625 -4.910715,-1.5625 -6.785715,0 l -32.098214,26.74107 c -0.580357,0.4911 -0.669643,1.4286 -0.178571,2.0089 l 2.767857,3.3036 c 0.223214,0.2679 0.580357,0.4464 0.9375,0.4911 0.401786,0.045 0.758928,-0.089 1.071428,-0.3125 L 50,981.36325 80.892857,1007.1222 c 0.267857,0.2232 0.580357,0.3125 0.9375,0.3125 0.04464,0 0.08928,0 0.133928,0 0.357143,-0.045 0.714286,-0.2232 0.9375,-0.4911 l 2.767857,-3.3036 z" />
    </g>
</svg>
