<svg
   xmlns="http://www.w3.org/2000/svg"
   version="1.1"
   viewBox="0 0 100 100">
  <g
     transform="translate(0,-952.36216)">
      <path
         d="m 67.142857,996.64791 c 0,1.5625 -1.294643,2.85715 -2.857143,2.85715 -10.982143,0 -17.901785,2.90174 -25.982143,10.17854 -2.142857,2.009 -4.107142,4.1518 -6.294642,6.1161 -0.580358,0.5357 -1.205358,0.8482 -2.008929,0.8482 -1.5625,0 -2.857143,-1.2946 -2.857143,-2.8571 0,-0.8036 0.3125,-1.4286 0.848214,-2.009 10.3125,-11.3839 20.491072,-17.99103 36.294643,-17.99103 1.5625,0 2.857143,1.29464 2.857143,2.85714 z M 90,987.80863 c 0,-3.79464 -1.651786,-16.875 -6.696429,-16.875 -3.75,0 -4.955357,2.09821 -7.410714,4.375 -6.205357,5.89286 -25.669643,2.36607 -34.821428,5.40178 -12.678572,4.19643 -23.973215,14.33036 -23.973215,28.52679 0,1.5625 0.133929,3.125 0.401786,4.6429 0.178571,0.8928 1.339286,3.2589 1.339286,3.6607 0,2.5893 -8.839286,6.2053 -8.839286,10.8482 0,0.9375 0.3125,1.2053 0.714286,1.9643 1.205357,2.0535 2.053571,3.4375 4.866071,3.4375 3.883929,0 6.5625,-9.1072 8.794643,-9.1072 1.785714,0 6.071429,2.8125 8.214286,3.5268 4.0625,1.3839 8.482143,2.0982 12.767857,2.0982 6.785714,0 13.526786,-1.7857 19.553571,-4.8214 C 77.321429,1019.3265 86.25,1010.3086 89.107143,996.4247 89.6875,993.56756 90,990.66577 90,987.80863 Z" />
  </g>
</svg>
