<svg
   xmlns="http://www.w3.org/2000/svg"
   version="1.1"
   viewBox="0 0 100 100">
  <g
     transform="translate(0,-952.36216)">
      <path
         d="m 32.388392,1030.4648 -4.776786,0 0,-5.7142 -5.714285,0 0,-4.7768 4.0625,-4.0625 10.491071,10.491 -4.0625,4.0625 z m 23.348214,-41.42853 c 0,0.26786 -0.08929,0.53572 -0.3125,0.75893 l -24.196428,24.1964 c -0.223215,0.2232 -0.491072,0.3125 -0.758929,0.3125 -0.580357,0 -0.982143,-0.4018 -0.982143,-0.9821 0,-0.2679 0.08929,-0.5357 0.3125,-0.7589 l 24.196429,-24.19647 c 0.223214,-0.22321 0.491071,-0.3125 0.758928,-0.3125 0.580358,0 0.982143,0.40179 0.982143,0.98214 z m -2.410714,-8.57143 -37.142857,37.14286 0,18.5714 18.571428,0 37.142858,-37.14283 -18.571429,-18.57143 z m 30.491071,4.28572 c 0,-1.51786 -0.625,-2.99107 -1.651785,-4.0625 L 71.674106,970.24163 c -1.071428,-1.07143 -2.544643,-1.69643 -4.0625,-1.69643 -1.517857,0 -2.991071,0.625 -4.017857,1.69643 l -7.410714,7.36607 18.571428,18.57143 7.410715,-7.41071 c 1.026785,-1.02679 1.651785,-2.5 1.651785,-4.01786 z" />
    </g>
</svg>
